<mxfile host="app.diagrams.net" modified="2023-05-21T11:32:23.443Z" agent="Mozilla/5.0 (Windows NT 10.0; Win64; x64) AppleWebKit/537.36 (KHTML, like Gecko) Chrome/113.0.0.0 Safari/537.36 Edg/113.0.1774.50" etag="c1cQTyLktb13tBaDBgSA" version="21.3.2" type="github">
  <diagram name="Page-1" id="2YBvvXClWsGukQMizWep">
    <mxGraphModel dx="1050" dy="590" grid="1" gridSize="10" guides="1" tooltips="1" connect="1" arrows="1" fold="1" page="1" pageScale="1" pageWidth="850" pageHeight="1100" math="0" shadow="0">
      <root>
        <mxCell id="0" />
        <mxCell id="1" parent="0" />
        <mxCell id="zPNDcWiPkaIgr_k1AdH4-6" style="edgeStyle=orthogonalEdgeStyle;orthogonalLoop=1;jettySize=auto;html=1;curved=1;" edge="1" parent="1" source="zPNDcWiPkaIgr_k1AdH4-2">
          <mxGeometry relative="1" as="geometry">
            <mxPoint x="380" y="230" as="targetPoint" />
          </mxGeometry>
        </mxCell>
        <mxCell id="zPNDcWiPkaIgr_k1AdH4-2" value="Người dùng" style="shape=umlActor;verticalLabelPosition=bottom;verticalAlign=top;html=1;" vertex="1" parent="1">
          <mxGeometry x="240" y="200" width="30" height="60" as="geometry" />
        </mxCell>
        <mxCell id="zPNDcWiPkaIgr_k1AdH4-5" value="Quản lí bài viết" style="ellipse;whiteSpace=wrap;html=1;" vertex="1" parent="1">
          <mxGeometry x="380" y="190" width="150" height="80" as="geometry" />
        </mxCell>
        <mxCell id="zPNDcWiPkaIgr_k1AdH4-8" style="edgeStyle=orthogonalEdgeStyle;orthogonalLoop=1;jettySize=auto;html=1;endArrow=blockThin;endFill=0;curved=1;" edge="1" parent="1" source="zPNDcWiPkaIgr_k1AdH4-7" target="zPNDcWiPkaIgr_k1AdH4-5">
          <mxGeometry relative="1" as="geometry" />
        </mxCell>
        <mxCell id="zPNDcWiPkaIgr_k1AdH4-7" value="Tạo bài viết" style="ellipse;whiteSpace=wrap;html=1;" vertex="1" parent="1">
          <mxGeometry x="580" y="90" width="120" height="80" as="geometry" />
        </mxCell>
        <mxCell id="zPNDcWiPkaIgr_k1AdH4-12" style="edgeStyle=orthogonalEdgeStyle;orthogonalLoop=1;jettySize=auto;html=1;entryX=1;entryY=0.5;entryDx=0;entryDy=0;endArrow=blockThin;endFill=0;curved=1;" edge="1" parent="1" source="zPNDcWiPkaIgr_k1AdH4-11" target="zPNDcWiPkaIgr_k1AdH4-5">
          <mxGeometry relative="1" as="geometry" />
        </mxCell>
        <mxCell id="zPNDcWiPkaIgr_k1AdH4-11" value="Sửa bài viết" style="ellipse;whiteSpace=wrap;html=1;" vertex="1" parent="1">
          <mxGeometry x="580" y="190" width="120" height="80" as="geometry" />
        </mxCell>
        <mxCell id="zPNDcWiPkaIgr_k1AdH4-15" style="edgeStyle=orthogonalEdgeStyle;orthogonalLoop=1;jettySize=auto;html=1;exitX=0;exitY=0.5;exitDx=0;exitDy=0;endArrow=blockThin;endFill=0;curved=1;" edge="1" parent="1" source="zPNDcWiPkaIgr_k1AdH4-14" target="zPNDcWiPkaIgr_k1AdH4-5">
          <mxGeometry relative="1" as="geometry" />
        </mxCell>
        <mxCell id="zPNDcWiPkaIgr_k1AdH4-14" value="Xóa bài viết" style="ellipse;whiteSpace=wrap;html=1;" vertex="1" parent="1">
          <mxGeometry x="579" y="287" width="120" height="80" as="geometry" />
        </mxCell>
        <mxCell id="zPNDcWiPkaIgr_k1AdH4-21" style="edgeStyle=orthogonalEdgeStyle;rounded=0;orthogonalLoop=1;jettySize=auto;html=1;exitX=0.5;exitY=0.5;exitDx=0;exitDy=0;exitPerimeter=0;" edge="1" parent="1" source="zPNDcWiPkaIgr_k1AdH4-16" target="zPNDcWiPkaIgr_k1AdH4-17">
          <mxGeometry relative="1" as="geometry" />
        </mxCell>
        <mxCell id="zPNDcWiPkaIgr_k1AdH4-16" value="Người dùng" style="shape=umlActor;verticalLabelPosition=bottom;verticalAlign=top;html=1;" vertex="1" parent="1">
          <mxGeometry x="240" y="570" width="30" height="60" as="geometry" />
        </mxCell>
        <mxCell id="zPNDcWiPkaIgr_k1AdH4-17" value="Quản lý tác giả" style="ellipse;whiteSpace=wrap;html=1;" vertex="1" parent="1">
          <mxGeometry x="365" y="560" width="120" height="80" as="geometry" />
        </mxCell>
        <mxCell id="zPNDcWiPkaIgr_k1AdH4-19" style="edgeStyle=orthogonalEdgeStyle;rounded=0;orthogonalLoop=1;jettySize=auto;html=1;entryX=1;entryY=0.5;entryDx=0;entryDy=0;endArrow=blockThin;endFill=0;" edge="1" parent="1" source="zPNDcWiPkaIgr_k1AdH4-18" target="zPNDcWiPkaIgr_k1AdH4-17">
          <mxGeometry relative="1" as="geometry" />
        </mxCell>
        <mxCell id="zPNDcWiPkaIgr_k1AdH4-18" value="Xem thông tin tác giả" style="ellipse;whiteSpace=wrap;html=1;" vertex="1" parent="1">
          <mxGeometry x="550" y="560" width="120" height="80" as="geometry" />
        </mxCell>
        <mxCell id="zPNDcWiPkaIgr_k1AdH4-25" style="edgeStyle=orthogonalEdgeStyle;rounded=0;orthogonalLoop=1;jettySize=auto;html=1;entryX=0;entryY=0.5;entryDx=0;entryDy=0;" edge="1" parent="1" source="zPNDcWiPkaIgr_k1AdH4-22" target="zPNDcWiPkaIgr_k1AdH4-23">
          <mxGeometry relative="1" as="geometry" />
        </mxCell>
        <mxCell id="zPNDcWiPkaIgr_k1AdH4-22" value="Người dùng" style="shape=umlActor;verticalLabelPosition=bottom;verticalAlign=top;html=1;" vertex="1" parent="1">
          <mxGeometry x="209" y="725" width="30" height="60" as="geometry" />
        </mxCell>
        <mxCell id="zPNDcWiPkaIgr_k1AdH4-23" value="Quản lý mô hình nội dung tùy biến" style="ellipse;whiteSpace=wrap;html=1;" vertex="1" parent="1">
          <mxGeometry x="320" y="715" width="120" height="80" as="geometry" />
        </mxCell>
        <mxCell id="zPNDcWiPkaIgr_k1AdH4-26" value="Tạo mô hình nội dung tùy biến" style="ellipse;whiteSpace=wrap;html=1;" vertex="1" parent="1">
          <mxGeometry x="500" y="675" width="120" height="80" as="geometry" />
        </mxCell>
        <mxCell id="zPNDcWiPkaIgr_k1AdH4-31" value="Thêm mô hình nội dung tùy biến" style="ellipse;whiteSpace=wrap;html=1;" vertex="1" parent="1">
          <mxGeometry x="500" y="770" width="120" height="80" as="geometry" />
        </mxCell>
      </root>
    </mxGraphModel>
  </diagram>
</mxfile>
